<?xml version="1.0" encoding="UTF-8" standalone="no"?>
<!DOCTYPE svg PUBLIC "-//W3C//DTD SVG 1.1//EN"
 "http://www.w3.org/Graphics/SVG/1.1/DTD/svg11.dtd">
<!-- Generated by graphviz version 2.46.0 (20210118.1747)
 -->
<!-- Title: dependency&#45;cruiser output Pages: 1 -->
<svg width="574pt" height="226pt"
 viewBox="0.00 0.00 574.00 226.00" xmlns="http://www.w3.org/2000/svg" xmlns:xlink="http://www.w3.org/1999/xlink">
<g id="graph0" class="graph" transform="scale(1 1) rotate(0) translate(4 222)">
<title>dependency&#45;cruiser output</title>
<polygon fill="white" stroke="transparent" points="-4,4 -4,-222 570,-222 570,4 -4,4"/>
<g id="clust1" class="cluster">
<title>cluster_src</title>
<path fill="#ffffff" stroke="black" stroke-width="2" d="M20,-8C20,-8 546,-8 546,-8 552,-8 558,-14 558,-20 558,-20 558,-198 558,-198 558,-204 552,-210 546,-210 546,-210 20,-210 20,-210 14,-210 8,-204 8,-198 8,-198 8,-20 8,-20 8,-14 14,-8 20,-8"/>
<text text-anchor="middle" x="283" y="-198.8" font-family="Helvetica,sans-Serif" font-weight="bold" font-size="9.00">src</text>
</g>
<g id="clust2" class="cluster">
<title>cluster_src/components</title>
<path fill="#ffffff" stroke="black" stroke-width="2" d="M303,-16C303,-16 470.5,-16 470.5,-16 476.5,-16 482.5,-22 482.5,-28 482.5,-28 482.5,-146 482.5,-146 482.5,-152 476.5,-158 470.5,-158 470.5,-158 303,-158 303,-158 297,-158 291,-152 291,-146 291,-146 291,-28 291,-28 291,-22 297,-16 303,-16"/>
<text text-anchor="middle" x="386.75" y="-146.8" font-family="Helvetica,sans-Serif" font-weight="bold" font-size="9.00">components</text>
</g>
<!-- src/App.js -->
<g id="node1" class="node">
<title>src/App.js</title>
<g id="a_node1"><a xlink:href="src/App.js" xlink:title="App.js">
<path fill="#ffffcc" stroke="black" d="M165.5,-72C165.5,-72 123.5,-72 123.5,-72 120.5,-72 117.5,-69 117.5,-66 117.5,-66 117.5,-60 117.5,-60 117.5,-57 120.5,-54 123.5,-54 123.5,-54 165.5,-54 165.5,-54 168.5,-54 171.5,-57 171.5,-60 171.5,-60 171.5,-66 171.5,-66 171.5,-69 168.5,-72 165.5,-72"/>
<text text-anchor="middle" x="144.5" y="-60.8" font-family="Helvetica,sans-Serif" font-size="9.00">App.js</text>
</a>
</g>
</g>
<!-- src/components/Loading.js -->
<g id="node2" class="node">
<title>src/components/Loading.js</title>
<g id="a_node2"><a xlink:href="src/components/Loading.js" xlink:title="Loading.js">
<path fill="#ffffcc" stroke="black" d="M361.5,-42C361.5,-42 313.5,-42 313.5,-42 310.5,-42 307.5,-39 307.5,-36 307.5,-36 307.5,-30 307.5,-30 307.5,-27 310.5,-24 313.5,-24 313.5,-24 361.5,-24 361.5,-24 364.5,-24 367.5,-27 367.5,-30 367.5,-30 367.5,-36 367.5,-36 367.5,-39 364.5,-42 361.5,-42"/>
<text text-anchor="middle" x="337.5" y="-30.8" font-family="Helvetica,sans-Serif" font-size="9.00">Loading.js</text>
</a>
</g>
</g>
<!-- src/App.js&#45;&gt;src/components/Loading.js -->
<g id="edge1" class="edge">
<title>src/App.js&#45;&gt;src/components/Loading.js</title>
<path fill="none" stroke="#000000" stroke-width="2" stroke-opacity="0.200000" d="M171.66,-58.89C205.17,-53.63 263.4,-44.48 300.93,-38.59"/>
<polygon fill="#000000" fill-opacity="0.200000" stroke="#000000" stroke-width="2" stroke-opacity="0.200000" points="301.62,-40.6 307.22,-37.6 300.97,-36.46 301.62,-40.6"/>
</g>
<!-- src/components/SeriesTable.js -->
<g id="node3" class="node">
<title>src/components/SeriesTable.js</title>
<g id="a_node3"><a xlink:href="src/components/SeriesTable.js" xlink:title="SeriesTable.js">
<path fill="#ffffcc" stroke="black" d="M370,-72C370,-72 305,-72 305,-72 302,-72 299,-69 299,-66 299,-66 299,-60 299,-60 299,-57 302,-54 305,-54 305,-54 370,-54 370,-54 373,-54 376,-57 376,-60 376,-60 376,-66 376,-66 376,-69 373,-72 370,-72"/>
<text text-anchor="middle" x="337.5" y="-60.8" font-family="Helvetica,sans-Serif" font-size="9.00">SeriesTable.js</text>
</a>
</g>
</g>
<!-- src/App.js&#45;&gt;src/components/SeriesTable.js -->
<g id="edge2" class="edge">
<title>src/App.js&#45;&gt;src/components/SeriesTable.js</title>
<path fill="none" stroke="#000000" stroke-width="2" stroke-opacity="0.200000" d="M171.66,-63C202.76,-63 255.14,-63 292.51,-63"/>
<polygon fill="#000000" fill-opacity="0.200000" stroke="#000000" stroke-width="2" stroke-opacity="0.200000" points="292.84,-65.1 298.84,-63 292.84,-60.9 292.84,-65.1"/>
</g>
<!-- src/StudyBrowser.js -->
<g id="node4" class="node">
<title>src/StudyBrowser.js</title>
<g id="a_node4"><a xlink:href="src/StudyBrowser.js" xlink:title="StudyBrowser.js">
<path fill="#ffffcc" stroke="black" d="M277,-102C277,-102 206,-102 206,-102 203,-102 200,-99 200,-96 200,-96 200,-90 200,-90 200,-87 203,-84 206,-84 206,-84 277,-84 277,-84 280,-84 283,-87 283,-90 283,-90 283,-96 283,-96 283,-99 280,-102 277,-102"/>
<text text-anchor="middle" x="241.5" y="-90.8" font-family="Helvetica,sans-Serif" font-size="9.00">StudyBrowser.js</text>
</a>
</g>
</g>
<!-- src/App.js&#45;&gt;src/StudyBrowser.js -->
<g id="edge3" class="edge">
<title>src/App.js&#45;&gt;src/StudyBrowser.js</title>
<path fill="none" stroke="#000000" stroke-width="2" stroke-opacity="0.200000" d="M171.71,-71.28C182.28,-74.61 194.62,-78.51 205.91,-82.08"/>
<polygon fill="#000000" fill-opacity="0.200000" stroke="#000000" stroke-width="2" stroke-opacity="0.200000" points="205.35,-84.1 211.71,-83.91 206.62,-80.1 205.35,-84.1"/>
</g>
<!-- src/components/DicomViewer.js -->
<g id="node8" class="node">
<title>src/components/DicomViewer.js</title>
<g id="a_node8"><a xlink:href="src/components/DicomViewer.js" xlink:title="DicomViewer.js">
<path fill="#ffffcc" stroke="black" d="M468.5,-42C468.5,-42 399.5,-42 399.5,-42 396.5,-42 393.5,-39 393.5,-36 393.5,-36 393.5,-30 393.5,-30 393.5,-27 396.5,-24 399.5,-24 399.5,-24 468.5,-24 468.5,-24 471.5,-24 474.5,-27 474.5,-30 474.5,-30 474.5,-36 474.5,-36 474.5,-39 471.5,-42 468.5,-42"/>
<text text-anchor="middle" x="434" y="-30.8" font-family="Helvetica,sans-Serif" font-size="9.00">DicomViewer.js</text>
</a>
</g>
</g>
<!-- src/components/SeriesTable.js&#45;&gt;src/components/DicomViewer.js -->
<g id="edge9" class="edge">
<title>src/components/SeriesTable.js&#45;&gt;src/components/DicomViewer.js</title>
<path fill="none" stroke="#000000" stroke-width="2" stroke-opacity="0.200000" d="M366.85,-54C376.76,-50.85 388,-47.29 398.36,-44"/>
<polygon fill="#000000" fill-opacity="0.200000" stroke="#000000" stroke-width="2" stroke-opacity="0.200000" points="399.26,-45.92 404.34,-42.1 397.99,-41.91 399.26,-45.92"/>
</g>
<!-- src/components/MPR.js -->
<g id="node9" class="node">
<title>src/components/MPR.js</title>
<g id="a_node9"><a xlink:href="src/components/MPR.js" xlink:title="MPR.js">
<path fill="#ffffcc" stroke="black" d="M455,-72C455,-72 413,-72 413,-72 410,-72 407,-69 407,-66 407,-66 407,-60 407,-60 407,-57 410,-54 413,-54 413,-54 455,-54 455,-54 458,-54 461,-57 461,-60 461,-60 461,-66 461,-66 461,-69 458,-72 455,-72"/>
<text text-anchor="middle" x="434" y="-60.8" font-family="Helvetica,sans-Serif" font-size="9.00">MPR.js</text>
</a>
</g>
</g>
<!-- src/components/SeriesTable.js&#45;&gt;src/components/MPR.js -->
<g id="edge10" class="edge">
<title>src/components/SeriesTable.js&#45;&gt;src/components/MPR.js</title>
<path fill="none" stroke="#000000" stroke-width="2" stroke-opacity="0.200000" d="M376.12,-63C384.16,-63 392.59,-63 400.43,-63"/>
<polygon fill="#000000" fill-opacity="0.200000" stroke="#000000" stroke-width="2" stroke-opacity="0.200000" points="400.85,-65.1 406.85,-63 400.85,-60.9 400.85,-65.1"/>
</g>
<!-- src/components/SeriesItem.js -->
<g id="node11" class="node">
<title>src/components/SeriesItem.js</title>
<g id="a_node11"><a xlink:href="src/components/SeriesItem.js" xlink:title="SeriesItem.js">
<path fill="#ffffcc" stroke="black" d="M463.5,-102C463.5,-102 404.5,-102 404.5,-102 401.5,-102 398.5,-99 398.5,-96 398.5,-96 398.5,-90 398.5,-90 398.5,-87 401.5,-84 404.5,-84 404.5,-84 463.5,-84 463.5,-84 466.5,-84 469.5,-87 469.5,-90 469.5,-90 469.5,-96 469.5,-96 469.5,-99 466.5,-102 463.5,-102"/>
<text text-anchor="middle" x="434" y="-90.8" font-family="Helvetica,sans-Serif" font-size="9.00">SeriesItem.js</text>
</a>
</g>
</g>
<!-- src/components/SeriesTable.js&#45;&gt;src/components/SeriesItem.js -->
<g id="edge11" class="edge">
<title>src/components/SeriesTable.js&#45;&gt;src/components/SeriesItem.js</title>
<path fill="none" stroke="#000000" stroke-width="2" stroke-opacity="0.200000" d="M366.85,-72C376.76,-75.15 388,-78.71 398.36,-82"/>
<polygon fill="#000000" fill-opacity="0.200000" stroke="#000000" stroke-width="2" stroke-opacity="0.200000" points="397.99,-84.09 404.34,-83.9 399.26,-80.08 397.99,-84.09"/>
</g>
<!-- src/initCornerstone.js -->
<g id="node12" class="node">
<title>src/initCornerstone.js</title>
<g id="a_node12"><a xlink:href="src/initCornerstone.js" xlink:title="initCornerstone.js">
<path fill="#ffffcc" stroke="black" d="M473,-184C473,-184 395,-184 395,-184 392,-184 389,-181 389,-178 389,-178 389,-172 389,-172 389,-169 392,-166 395,-166 395,-166 473,-166 473,-166 476,-166 479,-169 479,-172 479,-172 479,-178 479,-178 479,-181 476,-184 473,-184"/>
<text text-anchor="middle" x="434" y="-172.8" font-family="Helvetica,sans-Serif" font-size="9.00">initCornerstone.js</text>
</a>
</g>
</g>
<!-- src/components/SeriesTable.js&#45;&gt;src/initCornerstone.js -->
<g id="edge8" class="edge">
<title>src/components/SeriesTable.js&#45;&gt;src/initCornerstone.js</title>
<path fill="none" stroke="#000000" stroke-width="2" stroke-opacity="0.200000" d="M369.46,-72.09C371.92,-73.75 374.16,-75.7 376,-78 399.27,-107.2 364.69,-132.66 389,-161 389.2,-161.23 389.4,-161.45 389.6,-161.67"/>
<polygon fill="#000000" fill-opacity="0.200000" stroke="#000000" stroke-width="2" stroke-opacity="0.200000" points="388.43,-163.44 394.33,-165.8 391.19,-160.27 388.43,-163.44"/>
</g>
<!-- src/components/Navbar.js -->
<g id="node6" class="node">
<title>src/components/Navbar.js</title>
<g id="a_node6"><a xlink:href="src/components/Navbar.js" xlink:title="Navbar.js">
<path fill="#ffffcc" stroke="black" d="M359.5,-132C359.5,-132 315.5,-132 315.5,-132 312.5,-132 309.5,-129 309.5,-126 309.5,-126 309.5,-120 309.5,-120 309.5,-117 312.5,-114 315.5,-114 315.5,-114 359.5,-114 359.5,-114 362.5,-114 365.5,-117 365.5,-120 365.5,-120 365.5,-126 365.5,-126 365.5,-129 362.5,-132 359.5,-132"/>
<text text-anchor="middle" x="337.5" y="-120.8" font-family="Helvetica,sans-Serif" font-size="9.00">Navbar.js</text>
</a>
</g>
</g>
<!-- src/StudyBrowser.js&#45;&gt;src/components/Navbar.js -->
<g id="edge5" class="edge">
<title>src/StudyBrowser.js&#45;&gt;src/components/Navbar.js</title>
<path fill="none" stroke="#000000" stroke-width="2" stroke-opacity="0.200000" d="M270.7,-102C281.02,-105.29 292.77,-109.04 303.47,-112.46"/>
<polygon fill="#000000" fill-opacity="0.200000" stroke="#000000" stroke-width="2" stroke-opacity="0.200000" points="302.93,-114.49 309.29,-114.31 304.21,-110.49 302.93,-114.49"/>
</g>
<!-- src/components/StudyTable.js -->
<g id="node7" class="node">
<title>src/components/StudyTable.js</title>
<g id="a_node7"><a xlink:href="src/components/StudyTable.js" xlink:title="StudyTable.js">
<path fill="#ffffcc" stroke="black" d="M367.5,-102C367.5,-102 307.5,-102 307.5,-102 304.5,-102 301.5,-99 301.5,-96 301.5,-96 301.5,-90 301.5,-90 301.5,-87 304.5,-84 307.5,-84 307.5,-84 367.5,-84 367.5,-84 370.5,-84 373.5,-87 373.5,-90 373.5,-90 373.5,-96 373.5,-96 373.5,-99 370.5,-102 367.5,-102"/>
<text text-anchor="middle" x="337.5" y="-90.8" font-family="Helvetica,sans-Serif" font-size="9.00">StudyTable.js</text>
</a>
</g>
</g>
<!-- src/StudyBrowser.js&#45;&gt;src/components/StudyTable.js -->
<g id="edge6" class="edge">
<title>src/StudyBrowser.js&#45;&gt;src/components/StudyTable.js</title>
<path fill="none" stroke="#000000" stroke-width="2" stroke-opacity="0.200000" d="M283.18,-93C287.16,-93 291.19,-93 295.17,-93"/>
<polygon fill="#000000" fill-opacity="0.200000" stroke="#000000" stroke-width="2" stroke-opacity="0.200000" points="295.36,-95.1 301.36,-93 295.36,-90.9 295.36,-95.1"/>
</g>
<!-- src/App.test.js -->
<g id="node5" class="node">
<title>src/App.test.js</title>
<g id="a_node5"><a xlink:href="src/App.test.js" xlink:title="App.test.js">
<path fill="#ffffcc" stroke="black" d="M76,-72C76,-72 29,-72 29,-72 26,-72 23,-69 23,-66 23,-66 23,-60 23,-60 23,-57 26,-54 29,-54 29,-54 76,-54 76,-54 79,-54 82,-57 82,-60 82,-60 82,-66 82,-66 82,-69 79,-72 76,-72"/>
<text text-anchor="middle" x="52.5" y="-60.8" font-family="Helvetica,sans-Serif" font-size="9.00">App.test.js</text>
</a>
</g>
</g>
<!-- src/App.test.js&#45;&gt;src/App.js -->
<g id="edge4" class="edge">
<title>src/App.test.js&#45;&gt;src/App.js</title>
<path fill="none" stroke="#000000" stroke-width="2" stroke-opacity="0.200000" d="M82.47,-63C91.66,-63 101.88,-63 111.28,-63"/>
<polygon fill="#000000" fill-opacity="0.200000" stroke="#000000" stroke-width="2" stroke-opacity="0.200000" points="111.32,-65.1 117.32,-63 111.32,-60.9 111.32,-65.1"/>
</g>
<!-- src/presets.js -->
<g id="node10" class="node">
<title>src/presets.js</title>
<g id="a_node10"><a xlink:href="src/presets.js" xlink:title="presets.js">
<path fill="#ffffcc" stroke="black" d="M544,-72C544,-72 498,-72 498,-72 495,-72 492,-69 492,-66 492,-66 492,-60 492,-60 492,-57 495,-54 498,-54 498,-54 544,-54 544,-54 547,-54 550,-57 550,-60 550,-60 550,-66 550,-66 550,-69 547,-72 544,-72"/>
<text text-anchor="middle" x="521" y="-60.8" font-family="Helvetica,sans-Serif" font-size="9.00">presets.js</text>
</a>
</g>
</g>
<!-- src/components/MPR.js&#45;&gt;src/presets.js -->
<g id="edge7" class="edge">
<title>src/components/MPR.js&#45;&gt;src/presets.js</title>
<path fill="none" stroke="#000000" stroke-width="2" stroke-opacity="0.200000" d="M461.43,-63C469.12,-63 477.63,-63 485.73,-63"/>
<polygon fill="#000000" fill-opacity="0.200000" stroke="#000000" stroke-width="2" stroke-opacity="0.200000" points="485.82,-65.1 491.82,-63 485.82,-60.9 485.82,-65.1"/>
</g>
<!-- src/index.js -->
<g id="node13" class="node">
<title>src/index.js</title>
<g id="a_node13"><a xlink:href="src/index.js" xlink:title="index.js">
<path fill="#ffffcc" stroke="black" d="M73.5,-102C73.5,-102 31.5,-102 31.5,-102 28.5,-102 25.5,-99 25.5,-96 25.5,-96 25.5,-90 25.5,-90 25.5,-87 28.5,-84 31.5,-84 31.5,-84 73.5,-84 73.5,-84 76.5,-84 79.5,-87 79.5,-90 79.5,-90 79.5,-96 79.5,-96 79.5,-99 76.5,-102 73.5,-102"/>
<text text-anchor="middle" x="52.5" y="-90.8" font-family="Helvetica,sans-Serif" font-size="9.00">index.js</text>
</a>
</g>
</g>
<!-- src/index.js&#45;&gt;src/App.js -->
<g id="edge12" class="edge">
<title>src/index.js&#45;&gt;src/App.js</title>
<path fill="none" stroke="#000000" stroke-width="2" stroke-opacity="0.200000" d="M79.53,-84.32C89.52,-80.99 101.03,-77.16 111.51,-73.66"/>
<polygon fill="#000000" fill-opacity="0.200000" stroke="#000000" stroke-width="2" stroke-opacity="0.200000" points="112.19,-75.65 117.21,-71.76 110.86,-71.67 112.19,-75.65"/>
</g>
<!-- src/serviceWorker.js -->
<g id="node14" class="node">
<title>src/serviceWorker.js</title>
<g id="a_node14"><a xlink:href="src/serviceWorker.js" xlink:title="serviceWorker.js">
<path fill="#ffffcc" stroke="black" d="M181,-102C181,-102 108,-102 108,-102 105,-102 102,-99 102,-96 102,-96 102,-90 102,-90 102,-87 105,-84 108,-84 108,-84 181,-84 181,-84 184,-84 187,-87 187,-90 187,-90 187,-96 187,-96 187,-99 184,-102 181,-102"/>
<text text-anchor="middle" x="144.5" y="-90.8" font-family="Helvetica,sans-Serif" font-size="9.00">serviceWorker.js</text>
</a>
</g>
</g>
<!-- src/index.js&#45;&gt;src/serviceWorker.js -->
<g id="edge13" class="edge">
<title>src/index.js&#45;&gt;src/serviceWorker.js</title>
<path fill="none" stroke="#000000" stroke-width="2" stroke-opacity="0.200000" d="M79.53,-93C84.64,-93 90.15,-93 95.71,-93"/>
<polygon fill="#000000" fill-opacity="0.200000" stroke="#000000" stroke-width="2" stroke-opacity="0.200000" points="95.76,-95.1 101.76,-93 95.76,-90.9 95.76,-95.1"/>
</g>
<!-- src/setupTests.js -->
<g id="node15" class="node">
<title>src/setupTests.js</title>
<g id="a_node15"><a xlink:href="src/setupTests.js" xlink:title="setupTests.js">
<path fill="#ccffcc" stroke="black" d="M83,-38C83,-38 22,-38 22,-38 19,-38 16,-35 16,-32 16,-32 16,-26 16,-26 16,-23 19,-20 22,-20 22,-20 83,-20 83,-20 86,-20 89,-23 89,-26 89,-26 89,-32 89,-32 89,-35 86,-38 83,-38"/>
<text text-anchor="middle" x="52.5" y="-26.8" font-family="Helvetica,sans-Serif" font-size="9.00">setupTests.js</text>
</a>
</g>
</g>
</g>
</svg>
